<svg version="1.1" id="Layer_1" xmlns="http://www.w3.org/2000/svg" xmlns:xlink="http://www.w3.org/1999/xlink" x="0px" y="0px"
	 width="100%" viewBox="0 0 65 104" enable-background="new 0 0 65 104" xml:space="preserve">
<path fill="#000000" opacity="1.000000" stroke="none" 
	d="
M66.000000,91.000000 
	C66.000000,95.658546 66.000000,100.317093 66.000000,104.981735 
	C44.379158,104.987823 22.758312,104.987823 1.068732,104.987823 
	C1.068732,70.439590 1.068732,35.879009 1.068732,1.159214 
	C22.665760,1.159214 44.332748,1.159214 66.000000,1.159214 
	C66.000000,5.060626 66.000000,9.053651 65.602180,13.596322 
	C64.132233,14.150026 63.060108,14.154085 61.600578,14.146100 
	C58.801353,14.738212 56.389534,15.342366 53.658287,15.996130 
	C52.805592,16.637648 52.272316,17.229557 51.509369,17.595680 
	C48.379181,10.582290 41.426685,7.597873 34.615181,10.141096 
	C31.467222,11.316455 28.272095,12.368743 25.080198,13.421803 
	C23.455839,13.957705 21.025331,13.853453 20.290436,14.939424 
	C18.197109,18.032782 16.787113,21.588562 15.186317,25.269176 
	C15.821166,26.707476 16.377911,27.838972 16.655418,29.161226 
	C13.184121,31.534588 12.159431,33.915771 15.007736,37.319180 
	C15.921471,38.410984 15.792734,40.375237 15.969299,42.260185 
	C14.000291,46.284515 16.693464,47.874359 19.281322,48.703194 
	C21.343031,49.363518 23.793154,48.811100 26.337488,48.878578 
	C26.787214,48.992203 26.970304,49.024300 27.098045,49.393028 
	C26.964279,50.174240 26.885860,50.618824 26.480518,51.270126 
	C26.162960,53.308880 26.172329,55.140919 26.020449,57.305603 
	C25.659826,58.781342 25.460455,59.924435 25.226753,61.492237 
	C25.192425,63.406219 25.192425,64.895485 25.192425,66.835854 
	C26.409191,65.956833 27.167446,65.409050 28.239325,64.920113 
	C28.757900,64.921982 28.962856,64.864998 29.373421,64.869095 
	C29.899103,65.206421 30.219177,65.482666 30.758726,66.106094 
	C32.032925,70.976685 33.087646,75.500107 33.967278,80.297493 
	C33.192757,80.797882 32.593327,81.024300 31.870668,80.890511 
	C25.826910,76.065018 22.299433,77.192619 21.105755,84.309135 
	C21.031988,90.051529 24.806063,90.761230 29.132053,91.367126 
	C34.933559,91.052536 40.481823,90.477089 46.372498,89.697601 
	C46.690643,86.146408 48.966568,81.806030 42.972038,80.635635 
	C42.948654,75.219818 43.002159,70.172035 43.441257,65.059273 
	C44.606037,65.052345 45.385223,65.110397 46.127571,65.267548 
	C46.090733,65.366646 46.180019,65.558311 46.129272,65.912827 
	C46.097088,66.505386 46.115643,66.743423 46.065956,67.406006 
	C46.339859,70.158295 46.682011,72.486038 47.311413,74.970009 
	C47.468040,76.105934 47.337418,77.085632 47.290237,78.432014 
	C48.162868,81.711807 47.873749,85.291801 52.010639,86.514244 
	C55.541382,92.191307 60.589798,92.202164 66.000000,91.000000 
M24.281754,72.627365 
	C24.464605,71.741119 24.647459,70.854866 25.062840,68.712753 
	C24.728670,67.863770 24.394499,67.014778 23.638033,66.076729 
	C23.183811,66.761017 22.729591,67.445297 22.206724,68.709831 
	C22.230661,69.098000 22.254599,69.486176 22.066166,70.550529 
	C22.690804,71.072922 23.315439,71.595314 24.281754,72.627365 
z"/>
<path fill="#3E3B48" opacity="1.000000" stroke="none" 
	d="
M66.000000,33.000000 
	C66.000000,34.066788 66.000000,35.133575 65.687988,36.681587 
	C64.576645,37.370274 63.777325,37.577728 62.871025,37.471542 
	C58.863987,36.031338 51.507439,38.623695 48.696751,41.881897 
	C47.604198,41.508121 46.800701,41.265621 45.883217,40.798527 
	C44.902260,40.713234 44.035282,40.852543 43.097687,40.569958 
	C42.500721,35.933811 43.204891,32.380184 48.255844,30.916714 
	C49.182362,30.249193 49.795696,29.657049 50.590523,28.921661 
	C50.926983,28.509121 51.066135,28.231888 51.392952,27.739752 
	C52.066917,26.681519 52.537411,25.830254 53.256439,24.981594 
	C53.504971,24.984201 54.000748,25.020390 54.312416,25.143032 
	C55.408195,25.512724 56.192303,25.759775 56.774189,26.236942 
	C56.031174,27.312592 55.490376,28.158125 54.978714,29.267654 
	C55.313705,29.700171 55.619572,29.868690 56.156708,30.335262 
	C57.890034,30.767244 59.392082,30.901175 61.008606,31.257483 
	C61.416595,31.601881 61.710110,31.723902 62.320854,31.913895 
	C63.069801,32.009163 63.501518,32.036457 64.050171,32.298279 
	C64.463264,32.703201 64.759430,32.873592 65.291664,33.032448 
	C65.527740,33.020908 66.000000,33.000000 66.000000,33.000000 
z"/>
<path fill="#220B40" opacity="1.000000" stroke="none" 
	d="
M66.000000,90.531342 
	C60.589798,92.202164 55.541382,92.191307 52.300766,86.408463 
	C55.075619,85.481850 57.632748,84.995979 60.492085,84.382980 
	C61.109612,82.857483 61.424931,81.459122 61.765419,79.769844 
	C61.551289,78.977760 61.311993,78.476593 61.133644,77.710075 
	C61.239208,77.268799 61.283817,77.092865 61.501907,76.605698 
	C61.512695,74.233101 61.349998,72.171753 61.126530,69.671692 
	C61.102287,67.465378 61.138817,65.697784 61.372238,63.676987 
	C62.075211,62.269825 62.581287,61.115868 63.275787,59.988464 
	C63.464211,60.015015 63.841171,60.067265 63.994320,60.371605 
	C64.764977,61.783958 65.382492,62.891979 66.000000,64.000000 
	C66.000000,72.687561 66.000000,81.375130 66.000000,90.531342 
z"/>
<path fill="#E51648" opacity="1.000000" stroke="none" 
	d="
M62.978001,37.785187 
	C63.777325,37.577728 64.576645,37.370274 65.687988,37.081406 
	C66.000000,39.370556 66.000000,41.741116 65.664154,44.557377 
	C64.880287,45.000286 64.432274,44.997490 63.658665,44.996559 
	C62.899311,44.996719 62.465546,44.995018 61.770844,44.997208 
	C61.336403,45.009762 61.162907,45.018417 60.665932,45.107018 
	C59.891632,46.113644 59.440819,47.040321 58.617764,47.973629 
	C57.501186,47.998249 56.756851,48.016235 55.763981,48.018391 
	C55.515442,48.002560 55.017853,48.001011 54.759457,47.991669 
	C54.328796,47.976078 54.156532,47.969837 53.986214,47.659481 
	C53.920338,46.653774 53.852512,45.952179 53.784687,45.250587 
	C53.584820,45.250759 53.384953,45.250931 53.185085,45.251102 
	C53.124165,45.833866 53.063248,46.416626 52.748119,46.998718 
	C52.324474,47.001263 52.155033,47.004475 51.718395,46.999386 
	C51.273132,46.983761 51.095062,46.976437 50.928032,46.599762 
	C50.975246,45.492794 51.011429,44.755173 51.363838,43.848824 
	C55.446041,41.715122 59.212021,39.750156 62.978001,37.785187 
z"/>
<path fill="#F9244E" opacity="1.000000" stroke="none" 
	d="
M63.841171,60.067265 
	C63.841171,60.067265 63.464211,60.015015 63.164436,59.715958 
	C62.575657,59.151215 62.286652,58.885532 61.809792,58.294006 
	C61.419106,55.645199 61.216282,53.322239 61.260590,51.000721 
	C61.507721,51.002167 62.001984,51.005463 62.263775,51.241314 
	C63.683712,51.651443 64.841858,51.825722 66.000000,52.000000 
	C66.000000,54.370556 66.000000,56.741116 65.640015,59.559723 
	C64.800415,60.027607 64.320793,60.047436 63.841171,60.067265 
z"/>
<path fill="#ED1544" opacity="1.000000" stroke="none" 
	d="
M61.013454,50.999275 
	C61.216282,53.322239 61.419106,55.645199 61.530205,58.344330 
	C61.272556,58.812153 61.106632,58.903812 60.711010,58.723328 
	C60.046516,56.673740 59.611729,54.896301 59.227665,52.725853 
	C59.339760,51.808273 59.401131,51.283691 59.599876,50.539124 
	C60.158215,49.546509 60.579182,48.773888 61.000015,48.000587 
	C60.999886,47.999908 60.994476,47.996151 61.100548,48.128433 
	C61.485653,48.172359 61.764687,48.084000 62.364082,47.997406 
	C63.111244,47.997913 63.538052,47.996651 64.163612,48.211876 
	C64.908241,48.618912 65.454124,48.809456 66.000000,49.000000 
	C66.000000,49.750000 66.000000,50.500000 66.000000,51.625000 
	C64.841858,51.825722 63.683712,51.651443 62.165386,51.107124 
	C61.473358,50.552608 61.209442,50.640007 61.013454,50.999275 
M64.490295,50.542969 
	C64.490295,50.542969 64.462502,50.483784 64.490295,50.542969 
z"/>
<path fill="#220D40" opacity="1.000000" stroke="none" 
	d="
M66.000000,32.533882 
	C66.000000,33.000000 65.527740,33.020908 65.270340,32.690201 
	C64.927704,31.912243 64.842453,31.464994 64.788162,30.705727 
	C64.744972,29.775156 64.670830,29.156605 64.701248,28.068901 
	C65.203873,24.399832 65.601936,21.199915 66.000000,18.000000 
	C66.000000,22.689257 66.000000,27.378511 66.000000,32.533882 
z"/>
<path fill="#E71741" opacity="1.000000" stroke="none" 
	d="
M63.964855,47.995384 
	C63.538052,47.996651 63.111244,47.997913 62.101494,47.994030 
	C61.343857,47.991310 61.169167,47.993732 60.994476,47.996151 
	C60.994476,47.996151 60.999886,47.999908 60.994667,47.665543 
	C60.992783,46.884457 60.996117,46.437729 61.208809,45.866909 
	C61.677769,45.538067 61.882309,45.288235 62.031784,44.993317 
	C62.465546,44.995018 62.899311,44.996719 63.852379,45.215431 
	C64.914452,45.621628 65.457230,45.810814 66.000000,46.000000 
	C66.000000,46.444336 66.000000,46.888672 65.661049,47.666992 
	C64.869682,47.999115 64.417267,47.997253 63.964855,47.995384 
z"/>
<path fill="#40204A" opacity="1.000000" stroke="none" 
	d="
M66.000000,17.750000 
	C65.601936,21.199915 65.203873,24.399832 64.528160,27.934746 
	C64.250511,28.269745 63.907539,27.997663 63.937363,27.757172 
	C63.967186,27.516680 63.852203,27.045233 63.906738,26.613552 
	C63.903896,24.445261 63.846519,22.708652 63.839546,20.736660 
	C63.889950,20.501274 63.795403,20.028971 63.870003,19.657066 
	C64.009666,18.529869 64.074738,17.774578 64.449806,17.013294 
	C65.173203,17.004869 65.586601,17.002436 66.000000,17.000000 
	C66.000000,17.000000 66.000000,17.500000 66.000000,17.750000 
z"/>
<path fill="#512055" opacity="1.000000" stroke="none" 
	d="
M66.000000,16.625000 
	C65.586601,17.002436 65.173203,17.004869 64.377213,16.780376 
	C63.994621,16.553446 63.886032,16.078913 63.776077,15.803376 
	C63.121582,15.318727 62.577042,15.109614 62.022671,14.714834 
	C62.012836,14.529166 61.987984,14.158143 61.987984,14.158143 
	C63.060108,14.154085 64.132233,14.150026 65.602180,14.072984 
	C66.000000,14.750000 66.000000,15.500000 66.000000,16.625000 
z"/>
<path fill="#F02454" opacity="1.000000" stroke="none" 
	d="
M63.994320,60.371605 
	C64.320793,60.047436 64.800415,60.027607 65.640015,60.003891 
	C66.000000,61.066689 66.000000,62.133377 66.000000,63.600033 
	C65.382492,62.891979 64.764977,61.783958 63.994320,60.371605 
z"/>
<path fill="#F12844" opacity="1.000000" stroke="none" 
	d="
M66.000000,45.750000 
	C65.457230,45.810814 64.914452,45.621628 64.177971,45.213570 
	C64.432274,44.997490 64.880287,45.000286 65.664154,45.001541 
	C66.000000,45.000000 66.000000,45.500000 66.000000,45.750000 
z"/>
<path fill="#F12844" opacity="1.000000" stroke="none" 
	d="
M64.163612,48.211880 
	C64.417267,47.997253 64.869682,47.999115 65.661049,48.000488 
	C66.000000,48.000000 66.000000,48.500000 66.000000,48.750000 
	C65.454124,48.809456 64.908241,48.618912 64.163612,48.211880 
z"/>
<path fill="#3D3B47" opacity="1.000000" stroke="none" 
	d="
M15.108214,24.962372 
	C16.787113,21.588562 18.197109,18.032782 20.290436,14.939424 
	C21.025331,13.853453 23.455839,13.957705 25.080198,13.421803 
	C28.272095,12.368743 31.467222,11.316455 34.615181,10.141096 
	C41.426685,7.597873 48.379181,10.582290 51.598854,17.654852 
	C51.918011,17.939808 52.098736,18.055067 52.101357,18.310968 
	C52.142918,18.732809 52.181866,18.898750 52.159485,19.275318 
	C52.098152,19.485941 52.147167,19.921936 52.046684,20.174042 
	C51.892498,20.598919 51.838795,20.771690 51.584633,20.957855 
	C51.384182,20.971249 50.982986,20.993256 50.628616,21.047619 
	C48.861782,21.883291 47.449318,22.664602 46.023338,23.695190 
	C45.923695,24.266788 45.863029,24.593834 45.527439,24.942844 
	C44.825233,24.975929 44.423412,24.991776 43.697872,25.048618 
	C42.563503,25.399881 41.752853,25.710146 40.700821,25.997944 
	C40.459435,25.975477 40.000710,25.818441 39.971947,25.636005 
	C39.657715,25.020193 39.372246,24.586817 38.884495,23.856422 
	C37.252522,21.048096 35.822830,18.536785 33.857883,15.085280 
	C30.322990,18.015797 27.271835,20.545284 23.829443,23.114019 
	C20.661541,23.756304 17.884878,24.359337 15.108214,24.962372 
z"/>
<path fill="#78E6F2" opacity="1.000000" stroke="none" 
	d="
M46.164413,65.168449 
	C45.385223,65.110397 44.606037,65.052345 43.064201,65.146675 
	C40.518272,65.608734 38.734997,65.918411 36.697037,66.084419 
	C35.966076,65.631767 35.489796,65.322777 34.870911,64.716370 
	C33.172314,62.607658 31.616316,60.796371 30.031013,58.599751 
	C29.634413,56.837990 29.267120,55.461567 28.711033,54.043747 
	C28.522238,54.002354 28.141644,53.934689 28.095684,53.604752 
	C27.635630,52.537674 27.221535,51.800541 26.807442,51.063404 
	C26.885860,50.618824 26.964279,50.174240 27.373405,49.495811 
	C28.480553,48.512386 29.256992,47.762814 30.416159,47.000130 
	C31.818441,47.031841 32.837997,47.076668 33.924179,47.400162 
	C34.351521,48.074913 34.712231,48.470997 35.380417,49.034462 
	C38.257698,50.790432 39.572090,49.763882 40.404839,46.922153 
	C41.293015,46.361496 41.870411,45.965321 42.510334,45.606079 
	C42.572857,45.643013 42.516037,45.776669 42.894661,45.839462 
	C43.781826,45.945095 44.290363,45.987934 44.992096,46.318748 
	C46.460255,47.125401 47.735214,47.644077 49.083069,48.490124 
	C49.450108,49.873852 49.744247,50.930206 49.691467,51.999142 
	C47.421272,53.118793 44.537502,53.613071 46.115486,57.366791 
	C46.183334,59.495785 46.305145,61.246357 46.405678,63.361034 
	C46.311073,64.206245 46.237743,64.687347 46.164413,65.168449 
z"/>
<path fill="#FC459D" opacity="1.000000" stroke="none" 
	d="
M61.072697,77.975418 
	C61.311993,78.476593 61.551289,78.977760 61.592339,80.015564 
	C60.992687,81.871498 60.591282,83.190796 60.189880,84.510101 
	C57.632748,84.995979 55.075619,85.481850 52.228363,86.073509 
	C47.873749,85.291801 48.162868,81.711807 47.742142,78.426422 
	C52.431297,78.027908 56.751995,78.001663 61.072697,77.975418 
z"/>
<path fill="#3B3945" opacity="1.000000" stroke="none" 
	d="
M16.140940,41.940334 
	C15.792734,40.375237 15.921471,38.410984 15.007736,37.319180 
	C12.159431,33.915771 13.184121,31.534588 17.086481,29.170345 
	C19.790661,28.969187 21.784536,28.949665 23.869806,29.258316 
	C23.984127,30.039728 24.007055,30.492966 24.013004,31.219597 
	C24.008266,31.675192 24.020512,31.857393 23.964958,32.070786 
	C23.897158,32.101974 23.792782,31.995281 23.584394,32.028233 
	C23.376007,32.061184 22.960854,32.141624 22.654449,32.287567 
	C20.470900,34.191540 18.194904,35.924126 21.993061,38.406765 
	C21.998558,39.493172 22.001091,40.216858 21.717522,41.080231 
	C19.667925,41.460052 17.904432,41.700195 16.140940,41.940334 
z"/>
<path fill="#7D4544" opacity="1.000000" stroke="none" 
	d="
M31.993900,81.250717 
	C32.593327,81.024300 33.192757,80.797882 34.323959,80.294350 
	C35.565609,79.965332 36.275486,79.913429 37.357475,79.908569 
	C38.878067,80.282417 40.026539,80.609230 41.268227,81.165710 
	C41.846931,81.249886 42.332420,81.104393 42.880356,80.945892 
	C42.942802,80.932892 43.048935,81.003662 43.048935,81.003662 
	C48.966568,81.806030 46.690643,86.146408 46.351387,89.368408 
	C45.776951,88.483170 45.566036,87.723061 45.355125,86.962959 
	C40.920189,90.141464 37.860699,85.142700 33.672157,84.992661 
	C32.638123,84.297852 31.908100,83.659355 31.368029,82.848907 
	C31.703285,82.201546 31.848593,81.726128 31.993900,81.250717 
z"/>
<path fill="#3560B4" opacity="1.000000" stroke="none" 
	d="
M41.175014,80.936043 
	C40.026539,80.609230 38.878067,80.282417 37.356918,79.456436 
	C36.973400,74.714211 36.962559,70.471146 36.951714,66.228081 
	C38.734997,65.918411 40.518272,65.608734 42.678612,65.211655 
	C43.002159,70.172035 42.948654,75.219818 42.972038,80.635635 
	C43.048935,81.003662 42.942802,80.932892 42.606865,80.939407 
	C41.905621,80.942635 41.540318,80.939339 41.175014,80.936043 
z"/>
<path fill="#241732" opacity="1.000000" stroke="none" 
	d="
M15.969299,42.260185 
	C17.904432,41.700195 19.667925,41.460052 22.006067,41.260300 
	C24.008373,41.866703 25.436029,42.432720 26.928858,43.317291 
	C26.666483,44.418118 26.338936,45.200390 26.008871,46.336254 
	C26.027853,47.392246 26.049353,48.094646 26.070852,48.797047 
	C23.793154,48.811100 21.343031,49.363518 19.281322,48.703194 
	C16.693464,47.874359 14.000291,46.284515 15.969299,42.260185 
z"/>
<path fill="#613233" opacity="1.000000" stroke="none" 
	d="
M33.976162,85.048973 
	C37.860699,85.142700 40.920189,90.141464 45.355125,86.962959 
	C45.566036,87.723061 45.776951,88.483170 46.008980,89.572464 
	C40.481823,90.477089 34.933559,91.052536 29.331575,91.129013 
	C29.843393,90.405853 30.408930,90.181664 31.262733,90.070969 
	C36.780758,90.560555 34.181980,87.239746 33.976162,85.048973 
z"/>
<path fill="#2A4D92" opacity="1.000000" stroke="none" 
	d="
M36.697037,66.084419 
	C36.962559,70.471146 36.973400,74.714211 36.984802,79.409409 
	C36.275486,79.913429 35.565609,79.965332 34.499054,80.020378 
	C33.087646,75.500107 32.032925,70.976685 30.635685,65.782204 
	C30.299433,64.879898 30.305696,64.648666 30.662350,64.599335 
	C32.346333,64.858757 33.679920,64.936272 35.013512,65.013786 
	C35.489796,65.322777 35.966076,65.631767 36.697037,66.084419 
z"/>
<path fill="#5E3A37" opacity="1.000000" stroke="none" 
	d="
M31.870667,80.890503 
	C31.848593,81.726128 31.703285,82.201546 31.043110,82.894562 
	C30.005468,83.715981 29.482697,84.319801 28.564939,84.922737 
	C25.830904,84.586891 23.491852,84.251938 21.152800,83.916985 
	C22.299433,77.192619 25.826910,76.065018 31.870667,80.890503 
z"/>
<path fill="#3C2423" opacity="1.000000" stroke="none" 
	d="
M21.105755,84.309135 
	C23.491852,84.251938 25.830904,84.586891 28.821165,85.164001 
	C29.973072,86.923271 30.473768,88.440369 30.974464,89.957474 
	C30.408930,90.181664 29.843393,90.405853 29.078335,90.868156 
	C24.806063,90.761230 21.031988,90.051529 21.105755,84.309135 
z"/>
<path fill="#F32A72" opacity="1.000000" stroke="none" 
	d="
M61.133644,77.710075 
	C56.751995,78.001663 52.431297,78.027908 47.658691,78.059738 
	C47.337418,77.085632 47.468040,76.105934 47.412571,74.758278 
	C47.400066,74.113991 47.641026,73.922401 48.412411,73.868149 
	C52.627174,73.945190 56.378880,73.969627 60.307503,73.999527 
	C60.484428,74.004990 60.836792,74.039139 60.878944,74.403229 
	C61.056873,75.483856 61.192650,76.200394 61.328426,76.916931 
	C61.283817,77.092865 61.239208,77.268799 61.133644,77.710075 
z"/>
<path fill="#312C38" opacity="1.000000" stroke="none" 
	d="
M23.778414,28.930145 
	C21.784536,28.949665 19.790661,28.969187 17.365719,28.979588 
	C16.377911,27.838972 15.821166,26.707476 15.186317,25.269176 
	C17.884878,24.359337 20.661541,23.756304 23.872955,23.343483 
	C24.526285,23.756380 24.755779,23.967178 25.000591,24.490644 
	C25.019583,25.247786 25.034166,25.680376 25.028915,26.325859 
	C25.009079,26.538752 24.966436,26.964247 24.682091,27.107830 
	C24.309536,27.853085 24.221327,28.454758 24.047268,29.016918 
	C23.961418,28.977409 23.778414,28.930145 23.778414,28.930145 
z"/>
<path fill="#AF7563" opacity="1.000000" stroke="none" 
	d="
M28.141644,53.934689 
	C28.141644,53.934689 28.522238,54.002354 28.752411,54.455040 
	C29.047075,56.285942 29.111570,57.664158 29.123728,59.376812 
	C28.996355,60.156147 28.921320,60.601036 28.644108,61.031788 
	C28.441929,61.017647 28.037134,60.996441 27.807293,60.951344 
	C27.577454,60.906246 27.112797,60.846764 27.057228,60.644650 
	C26.814058,60.266846 26.626455,60.091152 26.438852,59.915462 
	C26.310854,60.291233 26.182854,60.667004 25.857115,61.071548 
	C25.659376,61.100327 25.261082,61.067524 25.261082,61.067524 
	C25.460455,59.924435 25.659826,58.781342 26.217854,57.070381 
	C27.098221,55.646572 27.619934,54.790630 28.141644,53.934689 
z"/>
<path fill="#E29C7D" opacity="1.000000" stroke="none" 
	d="
M25.226753,61.492237 
	C25.261082,61.067524 25.659376,61.100327 26.122822,61.030357 
	C26.761778,60.922512 26.937288,60.884636 27.112797,60.846764 
	C27.112797,60.846764 27.577454,60.906246 27.798964,61.338390 
	C27.988884,62.800777 27.957294,63.831024 27.925705,64.861267 
	C27.167446,65.409050 26.409191,65.956833 25.192425,66.835854 
	C25.192425,64.895485 25.192425,63.406219 25.226753,61.492237 
z"/>
<path fill="#302642" opacity="1.000000" stroke="none" 
	d="
M26.337488,48.878578 
	C26.049353,48.094646 26.027853,47.392246 26.301300,46.308823 
	C27.083652,45.639191 27.571062,45.350586 28.397644,45.049591 
	C29.189903,45.034008 29.642992,45.030807 30.007078,45.357826 
	C29.956528,46.129776 29.994980,46.571507 30.033432,47.013241 
	C29.256992,47.762814 28.480553,48.512386 27.428753,49.159176 
	C26.970304,49.024300 26.787214,48.992203 26.337488,48.878578 
z"/>
<path fill="#78335D" opacity="1.000000" stroke="none" 
	d="
M47.949348,73.815552 
	C47.641026,73.922401 47.400066,74.113991 47.125320,74.602051 
	C46.682011,72.486038 46.339859,70.158295 46.263382,67.429108 
	C46.529057,67.027672 46.925037,67.064262 47.021767,67.060318 
	C47.118492,67.056381 47.308186,67.017624 47.274937,67.222992 
	C47.241688,67.428360 47.218712,67.843811 47.141296,68.200699 
	C47.280407,69.690041 47.496933,70.822502 47.791546,72.272614 
	C47.935886,72.798027 48.002140,73.005791 48.023827,73.361130 
	C47.979263,73.508705 47.949348,73.815552 47.949348,73.815552 
z"/>
<path fill="#6C1E57" opacity="1.000000" stroke="none" 
	d="
M61.600578,14.146100 
	C61.987984,14.158143 62.012836,14.529166 61.823807,14.867470 
	C61.373756,15.416153 61.148342,15.659505 60.708576,15.987385 
	C60.294689,16.084520 60.130764,16.130102 59.730221,16.139759 
	C59.493607,16.103832 59.021690,16.182261 58.754524,16.154774 
	C58.310341,16.154194 58.133324,16.181099 57.644791,16.186483 
	C56.533237,16.393108 55.733200,16.621252 54.811508,16.662390 
	C54.492527,16.245171 54.255146,16.068882 53.977711,15.946521 
	C56.389534,15.342366 58.801353,14.738212 61.600578,14.146100 
z"/>
<path fill="#CF225E" opacity="1.000000" stroke="none" 
	d="
M46.127571,65.267548 
	C46.237743,64.687347 46.311073,64.206245 46.585617,63.160011 
	C46.909386,62.068935 47.031933,61.542984 47.372013,61.310459 
	C47.735958,63.073757 47.882366,64.543633 48.016800,66.260147 
	C48.004822,66.506783 48.050926,66.998489 47.865425,67.010323 
	C47.679920,67.022156 47.308186,67.017624 47.308186,67.017624 
	C47.308186,67.017624 47.118492,67.056381 46.973564,66.776855 
	C46.612431,66.184319 46.396225,65.871315 46.180019,65.558311 
	C46.180019,65.558311 46.090733,65.366646 46.127571,65.267548 
z"/>
<path fill="#8B6D62" opacity="1.000000" stroke="none" 
	d="
M28.095684,53.604752 
	C27.619934,54.790630 27.098221,55.646572 26.379105,56.737732 
	C26.172329,55.140919 26.162960,53.308880 26.480516,51.270126 
	C27.221535,51.800541 27.635630,52.537674 28.095684,53.604752 
z"/>
<path fill="#E29C7D" opacity="1.000000" stroke="none" 
	d="
M22.278534,69.874344 
	C22.254599,69.486176 22.230661,69.098000 22.665081,68.222321 
	C23.435736,67.211800 23.748032,66.688797 24.060328,66.165794 
	C24.394499,67.014778 24.728670,67.863770 24.774658,69.329712 
	C24.486475,69.946671 24.144850,69.901985 23.838886,69.817307 
	C23.114796,69.779861 22.696665,69.827103 22.278534,69.874344 
z"/>
<path fill="#946B5C" opacity="1.000000" stroke="none" 
	d="
M28.239326,64.920113 
	C27.957294,63.831024 27.988884,62.800777 28.028805,61.383488 
	C28.037134,60.996441 28.441929,61.017647 28.743088,61.033043 
	C29.044249,61.048435 29.238783,61.012680 29.161348,61.435532 
	C29.109041,62.725288 29.134167,63.592194 29.209980,64.545135 
	C29.260664,64.631180 29.167812,64.808006 29.167812,64.808006 
	C28.962856,64.864998 28.757900,64.921982 28.239326,64.920113 
z"/>
<path fill="#AC6952" opacity="1.000000" stroke="none" 
	d="
M22.172350,70.212440 
	C22.696665,69.827103 23.114796,69.779861 23.798563,70.186890 
	C24.022825,71.133347 23.981451,71.625526 23.940075,72.117706 
	C23.315439,71.595314 22.690804,71.072922 22.172350,70.212440 
z"/>
<path fill="#432D54" opacity="1.000000" stroke="none" 
	d="
M53.658287,15.996130 
	C54.255146,16.068882 54.492527,16.245171 54.545063,16.746189 
	C53.912006,17.252317 53.423740,17.487638 52.713039,17.772594 
	C52.490601,17.822231 52.098736,18.055067 52.098736,18.055067 
	C52.098736,18.055067 51.918011,17.939808 51.828529,17.880638 
	C52.272316,17.229557 52.805592,16.637648 53.658287,15.996130 
z"/>
<path fill="#AC6952" opacity="1.000000" stroke="none" 
	d="
M23.849180,66.121262 
	C23.748032,66.688797 23.435736,67.211800 22.699406,67.932190 
	C22.729591,67.445297 23.183811,66.761017 23.849180,66.121262 
z"/>
<path fill="#E29C7D" opacity="1.000000" stroke="none" 
	d="
M29.373421,64.869095 
	C29.167812,64.808006 29.260664,64.631180 29.413517,64.504318 
	C29.836943,64.390968 30.106089,64.377037 30.353111,64.352142 
	C30.332413,64.368622 30.311960,64.417427 30.311960,64.417427 
	C30.305696,64.648666 30.299433,64.879898 30.416208,65.435028 
	C30.219177,65.482666 29.899103,65.206421 29.373421,64.869095 
z"/>
<path fill="#CC7F69" opacity="1.000000" stroke="none" 
	d="
M24.110914,72.372536 
	C23.981451,71.625526 24.022825,71.133347 24.104527,70.271576 
	C24.144850,69.901985 24.486475,69.946671 24.658394,69.957642 
	C24.647459,70.854866 24.464605,71.741119 24.110914,72.372536 
z"/>
<path fill="#8D647D" opacity="1.000000" stroke="none" 
	d="
M46.129272,65.912827 
	C46.396225,65.871315 46.612431,66.184319 46.876839,66.780792 
	C46.925037,67.064262 46.529057,67.027672 46.331627,67.004562 
	C46.115643,66.743423 46.097088,66.505386 46.129272,65.912827 
z"/>
<path fill="#E4957C" opacity="1.000000" stroke="none" 
	d="
M47.942661,30.992088 
	C43.204891,32.380184 42.500721,35.933811 43.020767,40.809002 
	C42.972271,41.631977 42.930073,41.794018 42.558212,41.976147 
	C41.795193,41.935368 41.361839,41.874504 40.855263,41.696724 
	C40.556759,41.386440 40.302486,41.350243 39.767891,41.615059 
	C39.339172,41.834549 39.161781,41.910191 38.709278,41.964241 
	C38.250195,41.940971 38.066227,41.939293 38.093536,41.595451 
	C38.559677,39.309578 38.814537,37.365871 39.122131,35.019997 
	C35.523487,35.019997 32.758709,35.019997 29.995090,34.703712 
	C29.996819,33.755020 29.997389,33.122612 30.233604,32.278053 
	C30.614222,31.676168 30.759197,31.286440 30.955400,30.691685 
	C31.006628,30.486660 31.243792,30.136810 31.481647,30.157438 
	C32.037510,30.191612 32.355412,30.207270 32.865845,30.436607 
	C33.409351,30.777357 33.760227,30.906538 34.330673,31.026011 
	C34.550243,31.016302 34.989418,30.997759 35.227943,31.250387 
	C36.375675,31.585724 37.284878,31.668434 38.587662,31.807503 
	C40.497421,31.568657 42.013599,31.273451 43.651627,30.949593 
	C43.773468,30.920944 43.995968,30.806225 44.386345,30.876789 
	C45.832035,30.962265 46.887348,30.977177 47.942661,30.992088 
z"/>
<path fill="#322D3B" opacity="1.000000" stroke="none" 
	d="
M62.871025,37.471542 
	C59.212021,39.750156 55.446041,41.715122 51.100517,43.727760 
	C50.006699,43.506592 49.492428,43.237751 48.981865,42.729992 
	C48.985573,42.491074 48.985802,42.013176 48.985802,42.013176 
	C51.507439,38.623695 58.863987,36.031338 62.871025,37.471542 
z"/>
<path fill="#E2195B" opacity="1.000000" stroke="none" 
	d="
M63.907539,27.997662 
	C63.907539,27.997663 64.250511,28.269745 64.423599,28.403900 
	C64.670830,29.156605 64.744972,29.775156 64.620018,30.854515 
	C64.215012,31.536552 64.052452,31.786028 63.933231,32.063751 
	C63.501518,32.036457 63.069801,32.009163 62.168610,31.736961 
	C61.466808,31.276293 61.198475,31.123976 60.894131,31.035107 
	C59.392082,30.901175 57.890034,30.767244 56.385239,30.285568 
	C55.904858,29.626436 55.427219,29.315048 54.949581,29.003658 
	C55.490376,28.158125 56.031174,27.312592 57.015488,26.234022 
	C57.459011,26.000986 57.941410,25.992821 58.202488,25.997141 
	C58.637642,26.001562 58.811714,26.001665 59.239506,26.009338 
	C59.662411,26.013695 59.831600,26.010481 59.998657,26.252447 
	C59.996529,26.497625 59.992710,26.987988 59.857742,27.087612 
	C59.531075,27.517189 59.616451,27.782757 60.227425,27.990068 
	C60.475937,27.996197 60.972996,28.007303 61.340164,28.009226 
	C62.440735,28.006653 63.174137,28.002157 63.907539,27.997662 
M63.006390,29.532299 
	C62.744007,29.424332 62.487026,29.295137 62.214798,29.225851 
	C62.158634,29.211557 62.045654,29.420500 61.958858,29.526554 
	C62.231049,29.610872 62.503242,29.695190 63.006390,29.532299 
z"/>
<path fill="#271A36" opacity="1.000000" stroke="none" 
	d="
M48.696751,41.881897 
	C48.985802,42.013176 48.985573,42.491074 48.658829,42.793873 
	C47.189449,43.746475 46.046818,44.396278 44.563267,45.004353 
	C43.653580,45.233971 43.084808,45.505322 42.516037,45.776672 
	C42.516037,45.776669 42.572857,45.643013 42.524632,45.250885 
	C41.960434,43.843716 41.444458,42.828678 40.928486,41.813637 
	C41.361839,41.874504 41.795193,41.935368 42.898308,41.980206 
	C44.377781,41.650490 45.187492,41.336807 45.997200,41.023125 
	C46.800701,41.265621 47.604198,41.508121 48.696751,41.881897 
z"/>
<path fill="#E28A78" opacity="1.000000" stroke="none" 
	d="
M48.255844,30.916714 
	C46.887348,30.977177 45.832035,30.962265 44.382534,30.596973 
	C43.987457,29.872047 43.986565,29.497503 44.213310,29.109516 
	C44.440941,29.096075 44.894810,29.051422 45.130318,28.864407 
	C45.604862,28.128288 45.843906,27.579185 46.306862,27.025408 
	C46.530773,27.020733 46.978630,27.028440 47.103394,27.273624 
	C47.479118,28.007841 47.730080,28.496872 47.883114,29.036263 
	C47.785191,29.086618 47.782021,29.366560 47.782021,29.366560 
	C47.782021,29.366560 48.015190,29.020069 48.413551,29.025719 
	C49.344284,29.042545 49.876656,29.053724 50.409027,29.064905 
	C49.795696,29.657049 49.182362,30.249193 48.255844,30.916714 
z"/>
<path fill="#CF7B6A" opacity="1.000000" stroke="none" 
	d="
M47.981037,28.985905 
	C47.730080,28.496872 47.479118,28.007841 47.412083,27.135731 
	C48.674957,26.512486 49.753910,26.272322 50.906567,26.348549 
	C51.050007,27.092201 51.119743,27.519463 51.189480,27.946722 
	C51.066135,28.231888 50.926983,28.509121 50.590523,28.921661 
	C49.876656,29.053724 49.344284,29.042545 48.406021,29.016075 
	C48.000130,29.000784 47.981037,28.985905 47.981037,28.985905 
z"/>
<path fill="#C02867" opacity="1.000000" stroke="none" 
	d="
M57.941410,25.992821 
	C57.941410,25.992821 57.459011,26.000986 57.217712,26.003906 
	C56.192303,25.759775 55.408195,25.512724 54.333405,24.825920 
	C54.076359,23.964046 54.110001,23.541927 54.443924,23.113262 
	C55.147530,23.113123 55.550858,23.119528 56.088902,23.306049 
	C56.445107,23.695745 56.700577,23.848476 57.208607,24.141457 
	C57.598591,24.889975 57.770000,25.441399 57.941410,25.992821 
z"/>
<path fill="#312841" opacity="1.000000" stroke="none" 
	d="
M45.883217,40.798527 
	C45.187492,41.336807 44.377781,41.650490 43.227974,41.960117 
	C42.930073,41.794018 42.972271,41.631977 43.091385,41.230892 
	C44.035282,40.852543 44.902260,40.713234 45.883217,40.798527 
z"/>
<path fill="#3D3945" opacity="1.000000" stroke="none" 
	d="
M51.392952,27.739752 
	C51.119743,27.519463 51.050007,27.092201 50.845062,25.989407 
	C50.585697,25.105139 50.461544,24.896410 50.422966,24.638809 
	C50.508545,24.589941 50.642548,24.448427 50.724094,24.331707 
	C50.805641,24.214985 50.992054,23.999704 51.266815,23.989883 
	C51.724655,23.973797 51.907726,23.967529 52.286926,24.040026 
	C52.483055,24.118788 52.898438,24.197155 52.916607,24.393902 
	C52.934776,24.590649 53.007908,24.978991 53.007904,24.978989 
	C52.537411,25.830254 52.066917,26.681519 51.392952,27.739752 
z"/>
<path fill="#F03466" opacity="1.000000" stroke="none" 
	d="
M54.978714,29.267654 
	C55.427219,29.315048 55.904858,29.626436 56.153965,29.987518 
	C55.619572,29.868690 55.313705,29.700171 54.978714,29.267654 
z"/>
<path fill="#DF1D80" opacity="1.000000" stroke="none" 
	d="
M53.256439,24.981596 
	C53.007908,24.978991 52.934776,24.590649 52.944149,24.094450 
	C52.968960,23.398506 52.984394,23.198763 53.287285,23.014999 
	C53.764378,23.060589 53.954010,23.090199 54.143639,23.119806 
	C54.110001,23.541927 54.076359,23.964046 54.021736,24.703278 
	C54.000748,25.020390 53.504971,24.984201 53.256439,24.981596 
z"/>
<path fill="#E22F51" opacity="1.000000" stroke="none" 
	d="
M64.050171,32.298279 
	C64.052452,31.786028 64.215012,31.536552 64.589066,31.166534 
	C64.842453,31.464994 64.927704,31.912243 65.034271,32.701740 
	C64.759430,32.873592 64.463264,32.703201 64.050171,32.298279 
z"/>
<path fill="#E22F51" opacity="1.000000" stroke="none" 
	d="
M61.008606,31.257483 
	C61.198475,31.123976 61.466808,31.276293 61.851372,31.668991 
	C61.710110,31.723902 61.416595,31.601881 61.008606,31.257483 
z"/>
<path fill="#A31C4A" opacity="1.000000" stroke="none" 
	d="
M61.175350,63.930183 
	C61.138817,65.697784 61.102287,67.465378 61.029964,69.647736 
	C60.994171,70.062492 60.822495,69.962494 60.628681,69.970306 
	C60.434868,69.978119 60.046303,69.980057 60.020798,69.652359 
	C59.964561,68.887657 59.933830,68.450653 59.928757,67.598480 
	C59.954285,65.800171 59.954151,64.417038 60.010345,62.708908 
	C60.354214,61.571941 60.641750,60.759972 60.997414,60.342529 
	C61.102146,61.801434 61.138748,62.865807 61.175350,63.930183 
z"/>
<path fill="#1E1542" opacity="1.000000" stroke="none" 
	d="
M61.501907,76.605698 
	C61.192650,76.200394 61.056873,75.483856 60.955849,74.000938 
	C60.934566,72.143867 60.878529,71.053185 60.822495,69.962494 
	C60.822495,69.962494 60.994171,70.062492 61.090736,70.086441 
	C61.349998,72.171753 61.512695,74.233101 61.501907,76.605698 
z"/>
<path fill="#FB52B6" opacity="1.000000" stroke="none" 
	d="
M60.492085,84.382980 
	C60.591282,83.190796 60.992687,81.871498 61.567169,80.306473 
	C61.424931,81.459122 61.109612,82.857483 60.492085,84.382980 
z"/>
<path fill="#1E1542" opacity="1.000000" stroke="none" 
	d="
M61.372238,63.676987 
	C61.138748,62.865807 61.102146,61.801434 61.026520,60.104839 
	C60.987492,59.472622 60.940712,58.995472 60.940712,58.995472 
	C61.106632,58.903812 61.272556,58.812153 61.718063,58.670174 
	C62.286652,58.885532 62.575657,59.151215 62.976013,59.689404 
	C62.581287,61.115868 62.075211,62.269825 61.372238,63.676987 
z"/>
<path fill="#3F3A47" opacity="1.000000" stroke="none" 
	d="
M44.904186,45.046082 
	C46.046818,44.396278 47.189449,43.746475 48.655121,43.032791 
	C49.492428,43.237751 50.006699,43.506592 50.784294,43.896492 
	C51.011429,44.755173 50.975246,45.492794 50.636131,46.657547 
	C49.892193,47.444042 49.451183,47.803398 49.010174,48.162754 
	C47.735214,47.644077 46.460255,47.125401 45.059444,46.076962 
	C44.923790,45.380157 44.913986,45.213120 44.904186,45.046082 
z"/>
<path fill="#B66559" opacity="1.000000" stroke="none" 
	d="
M59.462502,50.759113 
	C59.401131,51.283691 59.339760,51.808273 59.150681,52.882431 
	C59.022976,53.432011 58.963535,53.777260 58.647709,53.866577 
	C57.917427,54.097507 57.502975,54.239117 57.053078,53.998940 
	C56.655235,52.698063 56.292835,51.778973 55.952827,50.506336 
	C55.987652,49.446602 56.000084,48.740410 56.012520,48.034222 
	C56.756851,48.016235 57.501186,47.998249 58.628998,48.334473 
	C59.162491,49.378830 59.312496,50.068970 59.462502,50.759113 
z"/>
<path fill="#E61346" opacity="1.000000" stroke="none" 
	d="
M49.083069,48.490124 
	C49.451183,47.803398 49.892193,47.444042 50.625099,47.026901 
	C51.095062,46.976437 51.273132,46.983761 51.722248,47.332062 
	C51.995548,48.116825 51.997799,48.560612 52.000183,49.251835 
	C52.000324,49.499275 51.999825,49.996353 51.994576,50.348743 
	C51.982704,51.171352 51.976078,51.641567 51.648735,52.072262 
	C50.898144,52.017349 50.468266,52.001957 50.038387,51.986565 
	C49.744247,50.930206 49.450108,49.873852 49.083069,48.490124 
z"/>
<path fill="#F02A4F" opacity="1.000000" stroke="none" 
	d="
M59.599876,50.539124 
	C59.312496,50.068970 59.162491,49.378830 59.001244,48.327843 
	C59.440819,47.040321 59.891632,46.113644 60.669579,45.347828 
	C60.996716,45.508690 60.999447,45.991005 60.999447,45.991005 
	C60.996117,46.437729 60.992783,46.884457 60.994797,47.666222 
	C60.579182,48.773888 60.158215,49.546509 59.599876,50.539124 
z"/>
<path fill="#E10D44" opacity="1.000000" stroke="none" 
	d="
M53.002327,46.999390 
	C53.063248,46.416626 53.124165,45.833866 53.185085,45.251102 
	C53.384953,45.250931 53.584820,45.250759 53.784687,45.250587 
	C53.852512,45.952179 53.920338,46.653774 53.784504,47.541687 
	C53.331402,47.530090 53.138561,47.287216 53.002327,46.999390 
z"/>
<path fill="#F12949" opacity="1.000000" stroke="none" 
	d="
M52.748119,46.998718 
	C53.138561,47.287216 53.331402,47.530090 53.782558,47.845802 
	C54.156532,47.969837 54.328796,47.976078 54.751320,48.241657 
	C55.000359,48.667740 54.999138,48.834488 54.623695,49.001160 
	C53.499664,49.002190 52.749855,49.003292 52.000046,49.004395 
	C51.997799,48.560612 51.995548,48.116825 51.989445,47.340366 
	C52.155033,47.004475 52.324474,47.001263 52.748119,46.998718 
z"/>
<path fill="#BE2E42" opacity="1.000000" stroke="none" 
	d="
M54.997913,49.001236 
	C54.999138,48.834488 55.000359,48.667740 55.009720,48.250999 
	C55.017853,48.001011 55.515442,48.002560 55.763981,48.018391 
	C56.000084,48.740410 55.987652,49.446602 55.747112,50.566608 
	C55.519005,50.980427 55.100571,51.074192 55.068886,50.805916 
	C55.024242,50.358032 55.011288,50.178429 54.999836,49.749428 
	C55.001335,49.500031 54.997913,49.001236 54.997913,49.001236 
z"/>
<path fill="#F12844" opacity="1.000000" stroke="none" 
	d="
M61.208809,45.866909 
	C60.999447,45.991005 60.996716,45.508690 60.993065,45.267879 
	C61.162907,45.018417 61.336403,45.009762 61.770844,44.997208 
	C61.882309,45.288235 61.677769,45.538067 61.208809,45.866909 
z"/>
<path fill="#F62D47" opacity="1.000000" stroke="none" 
	d="
M61.260590,51.000721 
	C61.209442,50.640007 61.473358,50.552608 61.903595,50.871273 
	C62.001984,51.005463 61.507721,51.002167 61.260590,51.000721 
z"/>
<path fill="#FC3654" opacity="1.000000" stroke="none" 
	d="
M58.963535,53.777260 
	C58.963535,53.777260 59.022976,53.432011 59.099960,53.275436 
	C59.611729,54.896301 60.046516,56.673740 60.711010,58.723328 
	C60.940712,58.995472 60.987492,59.472622 60.958389,59.710312 
	C60.641750,60.759972 60.354214,61.571941 59.780361,62.701462 
	C59.494045,63.019012 59.033409,63.029182 59.025558,62.623756 
	C59.004917,61.137058 58.992123,60.055779 58.986507,58.545792 
	C58.983635,56.670471 58.973587,55.223866 58.963535,53.777260 
z"/>
<path fill="#F12844" opacity="1.000000" stroke="none" 
	d="
M61.100548,48.128433 
	C61.169167,47.993732 61.343857,47.991310 61.781136,47.992264 
	C61.764687,48.084000 61.485653,48.172359 61.100548,48.128433 
z"/>
<path fill="#F62D47" opacity="1.000000" stroke="none" 
	d="
M64.476395,50.513374 
	C64.462502,50.483784 64.490295,50.542969 64.476395,50.513374 
z"/>
<path fill="#E21F5A" opacity="1.000000" stroke="none" 
	d="
M59.992710,26.987988 
	C59.992710,26.987988 59.996529,26.497625 60.001862,25.920782 
	C60.009197,24.902061 60.011200,24.460182 60.247929,23.823727 
	C61.321331,22.749306 62.160007,21.869465 63.196297,20.985241 
	C63.393913,20.980858 63.789146,20.972044 63.789146,20.972044 
	C63.846519,22.708652 63.903896,24.445261 63.586903,26.613768 
	C62.466022,27.366213 61.719509,27.686758 60.972996,28.007305 
	C60.972996,28.007303 60.475937,27.996197 60.235561,27.741247 
	C59.995186,27.486298 59.992710,26.987988 59.992710,26.987988 
z"/>
<path fill="#DE1D71" opacity="1.000000" stroke="none" 
	d="
M59.966835,16.175684 
	C60.130764,16.130102 60.294689,16.084520 61.074856,16.010548 
	C62.422741,16.014408 63.154385,16.046659 63.886032,16.078913 
	C63.886032,16.078913 63.994621,16.553446 64.067215,16.786366 
	C64.074738,17.774578 64.009666,18.529869 63.517807,19.648388 
	C62.383343,20.005733 61.675663,19.999853 60.738998,19.995880 
	C60.510014,19.997786 60.051262,19.999777 60.034004,19.616508 
	C60.000111,18.214054 59.983475,17.194870 59.966835,16.175684 
M62.112942,18.337927 
	C62.048336,18.448400 61.983734,18.558874 61.919128,18.669350 
	C62.018684,18.622936 62.118240,18.576523 62.112942,18.337927 
z"/>
<path fill="#EC3170" opacity="1.000000" stroke="none" 
	d="
M60.967987,19.993973 
	C61.675663,19.999853 62.383343,20.005733 63.443211,20.020292 
	C63.795403,20.028971 63.889950,20.501274 63.839546,20.736660 
	C63.789146,20.972044 63.393913,20.980858 62.903824,20.949905 
	C61.931824,20.610624 61.449905,20.302299 60.967987,19.993973 
z"/>
<path fill="#F33A59" opacity="1.000000" stroke="none" 
	d="
M61.340164,28.009228 
	C61.719509,27.686758 62.466022,27.366213 63.532368,27.045448 
	C63.852203,27.045233 63.967186,27.516680 63.937363,27.757172 
	C63.174137,28.002157 62.440735,28.006653 61.340164,28.009228 
z"/>
<path fill="#AA2768" opacity="1.000000" stroke="none" 
	d="
M63.776077,15.803376 
	C63.154385,16.046659 62.422741,16.014408 61.324814,15.958992 
	C61.148342,15.659505 61.373756,15.416153 61.833641,15.053138 
	C62.577042,15.109614 63.121582,15.318727 63.776077,15.803376 
z"/>
<path fill="#E48C7A" opacity="1.000000" stroke="none" 
	d="
M24.996185,24.166096 
	C24.755779,23.967178 24.526285,23.756380 24.264194,23.304234 
	C27.271835,20.545284 30.322990,18.015797 33.857883,15.085280 
	C35.822830,18.536785 37.252522,21.048096 38.390919,23.951126 
	C37.379208,24.898563 36.658794,25.454279 35.965385,26.009159 
	C35.992386,26.008322 35.981586,25.954853 35.749092,25.790543 
	C35.334301,25.679169 35.152004,25.732101 34.714973,25.624178 
	C33.366222,26.274261 32.272202,27.085203 31.078545,27.593397 
	C30.348816,26.821650 29.718723,26.352650 28.935078,25.569990 
	C27.519745,24.892918 26.257965,24.529507 24.996185,24.166096 
z"/>
<path fill="#C17061" opacity="1.000000" stroke="none" 
	d="
M50.337391,24.687679 
	C50.461544,24.896410 50.585697,25.105139 50.771358,25.673014 
	C49.753910,26.272322 48.674957,26.512486 47.287315,26.890545 
	C46.978630,27.028440 46.530773,27.020733 46.286552,26.670769 
	C45.970829,25.855740 45.899326,25.390671 45.827827,24.925604 
	C45.863029,24.593834 45.923695,24.266788 46.378021,23.575500 
	C47.831612,23.580256 48.917000,23.953978 50.068398,24.381701 
	C50.134403,24.435701 50.337391,24.687679 50.337391,24.687679 
z"/>
<path fill="#E02082" opacity="1.000000" stroke="none" 
	d="
M57.956306,16.208004 
	C58.133324,16.181099 58.310341,16.154194 58.749649,16.553421 
	C59.000336,18.319868 58.988731,19.660185 58.725430,20.997337 
	C58.305759,20.991997 58.137791,20.989822 57.699059,20.740746 
	C55.956547,20.324377 54.484791,20.154915 52.796822,19.966110 
	C52.580608,19.946770 52.147167,19.921936 52.147167,19.921936 
	C52.147167,19.921936 52.098152,19.485941 52.357090,19.256098 
	C52.616028,19.026255 53.011436,18.988451 53.402763,18.994064 
	C55.181496,18.069118 56.568901,17.138559 57.956306,16.208004 
z"/>
<path fill="#312D3B" opacity="1.000000" stroke="none" 
	d="
M50.002388,24.327698 
	C48.917000,23.953978 47.831612,23.580256 46.391541,23.326223 
	C47.449318,22.664602 48.861782,21.883291 50.630516,21.423716 
	C50.988548,22.496868 50.990299,23.248287 50.992050,23.999704 
	C50.992054,23.999704 50.805641,24.214985 50.565224,24.296398 
	C50.324806,24.377811 50.002388,24.327698 50.002388,24.327698 
z"/>
<path fill="#413733" opacity="1.000000" stroke="none" 
	d="
M35.938381,26.009995 
	C36.658794,25.454279 37.379208,24.898563 38.593201,24.248144 
	C39.372246,24.586817 39.657715,25.020193 39.566483,25.689587 
	C38.105984,25.953735 37.022182,25.981867 35.938381,26.009995 
z"/>
<path fill="#3D3A46" opacity="1.000000" stroke="none" 
	d="
M40.942207,26.020412 
	C41.752853,25.710146 42.563503,25.399881 43.708420,25.342411 
	C44.060009,25.790483 44.077328,25.985765 44.062889,26.412132 
	C44.031128,26.643219 44.016064,27.109825 43.659851,27.183918 
	C42.596382,27.142714 41.889126,27.027418 41.127785,26.687626 
	C41.073708,26.463129 40.942207,26.020412 40.942207,26.020412 
z"/>
<path fill="#5F4642" opacity="1.000000" stroke="none" 
	d="
M44.094646,26.181047 
	C44.077328,25.985765 44.060009,25.790483 44.032143,25.301413 
	C44.423412,24.991776 44.825233,24.975929 45.527439,24.942844 
	C45.899326,25.390671 45.970829,25.855740 46.062637,26.675446 
	C45.843906,27.579185 45.604862,28.128288 45.220257,28.545242 
	C44.748013,27.669077 44.421329,26.925062 44.094646,26.181047 
z"/>
<path fill="#D38374" opacity="1.000000" stroke="none" 
	d="
M40.700821,25.997944 
	C40.942207,26.020412 41.073708,26.463129 40.828526,26.717154 
	C40.383263,26.982145 40.183182,26.993113 39.639687,27.068001 
	C39.071335,27.192732 38.846405,27.253544 38.408401,27.335814 
	C37.911167,27.358494 37.629887,27.330627 37.086197,27.192526 
	C36.637268,27.089319 36.453636,27.067257 36.266304,26.754513 
	C36.168930,26.294172 36.075256,26.124512 35.981586,25.954853 
	C35.981586,25.954853 35.992386,26.008322 35.965385,26.009159 
	C37.022182,25.981867 38.105984,25.953735 39.595245,25.872025 
	C40.000710,25.818441 40.459435,25.975477 40.700821,25.997944 
z"/>
<path fill="#EE4285" opacity="1.000000" stroke="none" 
	d="
M52.046684,20.174042 
	C52.147167,19.921936 52.580608,19.946770 52.796402,20.229237 
	C53.014622,20.687002 53.017040,20.862303 53.011307,21.276525 
	C53.003147,21.515450 53.003025,21.993576 53.002060,22.244938 
	C53.000675,22.663872 53.000256,22.831448 52.999832,22.999022 
	C52.984394,23.198763 52.968960,23.398506 52.925980,23.897703 
	C52.898438,24.197155 52.483055,24.118788 52.250637,23.662695 
	C51.940510,22.452557 51.862797,21.698509 51.785088,20.944464 
	C51.838795,20.771690 51.892498,20.598919 52.046684,20.174042 
z"/>
<path fill="#612A4B" opacity="1.000000" stroke="none" 
	d="
M51.584633,20.957855 
	C51.862797,21.698509 51.940510,22.452557 52.054504,23.583933 
	C51.907726,23.967529 51.724655,23.973797 51.266815,23.989883 
	C50.990299,23.248287 50.988548,22.496868 50.984890,21.369354 
	C50.982986,20.993256 51.384182,20.971249 51.584633,20.957855 
z"/>
<path fill="#EE4285" opacity="1.000000" stroke="none" 
	d="
M53.011436,18.988451 
	C53.011436,18.988451 52.616028,19.026255 52.418419,19.045475 
	C52.181866,18.898750 52.142918,18.732809 52.101357,18.310968 
	C52.098736,18.055067 52.490601,17.822231 52.733421,18.089333 
	C52.987972,18.567104 52.999706,18.777777 53.011436,18.988451 
z"/>
<path fill="#E48778" opacity="1.000000" stroke="none" 
	d="
M55.100571,51.074192 
	C55.100571,51.074192 55.519005,50.980427 55.724724,50.920155 
	C56.292835,51.778973 56.655235,52.698063 57.031689,54.323563 
	C56.747360,56.339821 56.448975,57.649677 56.123661,59.233009 
	C56.108852,59.689289 56.120968,59.872089 55.909664,60.301849 
	C54.022240,60.438457 52.296783,60.561466 50.713509,60.144539 
	C49.426544,59.805649 48.310055,58.819366 46.998230,57.900078 
	C46.642147,57.449436 46.405792,57.218903 46.169441,56.988369 
	C44.537502,53.613071 47.421272,53.118793 49.691467,51.999142 
	C50.468266,52.001957 50.898144,52.017349 51.690533,52.354500 
	C52.346020,53.146526 52.638996,53.616791 53.090431,54.265823 
	C53.772644,53.978981 54.296398,53.513374 54.881927,52.721203 
	C54.995995,51.954487 55.048283,51.514339 55.100571,51.074192 
z"/>
<path fill="#61AFC3" opacity="1.000000" stroke="none" 
	d="
M30.662350,64.599335 
	C30.311960,64.417427 30.332413,64.368622 30.454996,64.055588 
	C30.131315,62.832600 29.685049,61.922642 29.238783,61.012680 
	C29.238783,61.012680 29.044249,61.048435 28.945267,61.047180 
	C28.921320,60.601036 28.996355,60.156147 29.344494,59.360809 
	C29.617596,59.010368 30.060320,58.985085 30.060318,58.985085 
	C31.616316,60.796371 33.172314,62.607658 34.870911,64.716370 
	C33.679920,64.936272 32.346333,64.858757 30.662350,64.599335 
z"/>
<path fill="#E09B7D" opacity="1.000000" stroke="none" 
	d="
M40.094063,47.086639 
	C39.572090,49.763882 38.257698,50.790432 35.402664,48.859039 
	C35.117432,48.516243 35.238888,48.183357 35.534714,48.004967 
	C37.101120,47.431946 38.371700,47.037312 39.755119,46.753773 
	C39.867958,46.864872 40.094063,47.086639 40.094063,47.086639 
z"/>
<path fill="#E09B7D" opacity="1.000000" stroke="none" 
	d="
M40.855263,41.696724 
	C41.444458,42.828678 41.960434,43.843716 42.462109,45.213951 
	C41.870411,45.965321 41.293015,46.361496 40.404839,46.922153 
	C40.094063,47.086639 39.867958,46.864872 39.841969,46.428089 
	C39.927277,45.073944 40.038574,44.156586 40.168549,42.793427 
	C40.131222,42.055496 40.075222,41.763359 40.019222,41.471218 
	C40.302486,41.350243 40.556759,41.386440 40.855263,41.696724 
z"/>
<path fill="#5EAAC2" opacity="1.000000" stroke="none" 
	d="
M30.416161,47.000130 
	C29.994980,46.571507 29.956528,46.129776 30.225153,45.346725 
	C30.532228,45.005409 30.950985,44.881409 31.324303,44.912109 
	C32.840584,45.295391 33.983543,45.647968 35.124485,46.013428 
	C35.122463,46.026306 35.104984,46.044716 34.855099,46.169674 
	C34.355995,46.570255 34.106773,46.845875 33.857552,47.121494 
	C32.837997,47.076668 31.818441,47.031841 30.416161,47.000130 
z"/>
<path fill="#A295A0" opacity="1.000000" stroke="none" 
	d="
M46.115486,57.366791 
	C46.405792,57.218903 46.642147,57.449436 46.957806,58.261738 
	C47.076233,59.568016 47.115356,60.292526 47.154480,61.017036 
	C47.031933,61.542984 46.909386,62.068935 46.606895,62.795906 
	C46.305145,61.246357 46.183334,59.495785 46.115486,57.366791 
z"/>
<path fill="#6AA6AB" opacity="1.000000" stroke="none" 
	d="
M30.031013,58.599751 
	C30.060320,58.985085 29.617596,59.010368 29.396832,59.026367 
	C29.111570,57.664158 29.047075,56.285942 28.941204,54.496437 
	C29.267120,55.461567 29.634413,56.837990 30.031013,58.599751 
z"/>
<path fill="#4693A9" opacity="1.000000" stroke="none" 
	d="
M33.924179,47.400162 
	C34.106773,46.845875 34.355995,46.570255 34.873604,46.525726 
	C35.174294,47.232334 35.206593,47.707844 35.238888,48.183357 
	C35.238888,48.183357 35.117432,48.516243 35.095184,48.691662 
	C34.712231,48.470997 34.351521,48.074913 33.924179,47.400162 
z"/>
<path fill="#73D0DB" opacity="1.000000" stroke="none" 
	d="
M44.563267,45.004353 
	C44.913986,45.213120 44.923790,45.380157 44.866249,45.788986 
	C44.290363,45.987934 43.781826,45.945095 42.894661,45.839462 
	C43.084808,45.505322 43.653580,45.233971 44.563267,45.004353 
z"/>
<path fill="#E29A7D" opacity="1.000000" stroke="none" 
	d="
M29.997959,32.490208 
	C29.997389,33.122612 29.996819,33.755020 29.637196,34.611809 
	C28.134911,35.837250 26.991676,36.838310 25.658958,37.720871 
	C25.287407,37.362919 25.073360,37.156647 24.809391,36.713806 
	C24.545420,35.968380 24.299391,35.492714 24.082977,34.636528 
	C24.005993,33.502434 23.899387,32.748856 23.792782,31.995281 
	C23.792782,31.995281 23.897158,32.101974 24.296638,32.061577 
	C25.427202,31.881756 26.158285,31.742331 26.889366,31.602905 
	C26.868176,31.440519 26.846987,31.278131 26.825796,31.115744 
	C25.893858,31.059231 24.961922,31.002718 24.029984,30.946205 
	C24.007055,30.492966 23.984127,30.039728 23.869806,29.258316 
	C23.778414,28.930145 23.961418,28.977409 24.305002,28.984493 
	C24.819937,28.966122 24.991289,28.940666 25.569824,28.888592 
	C27.078243,29.614815 28.179478,30.367655 29.299278,31.129639 
	C29.317846,31.138784 29.390903,31.195860 29.490597,31.265566 
	C29.590292,31.335272 29.792721,31.470230 29.826397,31.728771 
	C29.906036,32.154945 29.952000,32.322578 29.997959,32.490208 
z"/>
<path fill="#2D3454" opacity="1.000000" stroke="none" 
	d="
M24.827332,36.983559 
	C25.073360,37.156647 25.287407,37.362919 25.713123,37.813122 
	C25.956774,38.023869 26.093565,38.188381 26.079224,38.504398 
	C26.723446,39.843521 27.382008,40.866631 28.005249,42.095333 
	C27.969925,42.300930 27.926979,42.715935 27.656033,42.767372 
	C27.211287,42.878784 27.037485,42.938759 26.863686,42.998734 
	C25.436029,42.432720 24.008373,41.866703 22.292171,41.120613 
	C22.001091,40.216858 21.998558,39.493172 22.267475,38.270210 
	C23.301729,37.508472 24.064529,37.246014 24.827332,36.983559 
z"/>
<path fill="#252746" opacity="1.000000" stroke="none" 
	d="
M24.809391,36.713802 
	C24.064529,37.246014 23.301729,37.508472 22.264515,37.907486 
	C18.194904,35.924126 20.470900,34.191540 22.673237,32.605461 
	C23.350075,33.523956 23.701717,34.270500 24.053360,35.017044 
	C24.299391,35.492714 24.545420,35.968380 24.809391,36.713802 
z"/>
<path fill="#775B4E" opacity="1.000000" stroke="none" 
	d="
M24.013004,31.219597 
	C24.961922,31.002718 25.893858,31.059231 26.825796,31.115744 
	C26.846987,31.278131 26.868176,31.440519 26.889366,31.602905 
	C26.158285,31.742331 25.427202,31.881756 24.364439,32.030388 
	C24.020512,31.857393 24.008266,31.675192 24.013004,31.219597 
z"/>
<path fill="#2D3454" opacity="1.000000" stroke="none" 
	d="
M24.082977,34.636528 
	C23.701717,34.270500 23.350075,33.523956 22.979641,32.459518 
	C22.960854,32.141624 23.376007,32.061184 23.584394,32.028233 
	C23.899387,32.748856 24.005993,33.502434 24.082977,34.636528 
z"/>
<path fill="#4C2D2D" opacity="1.000000" stroke="none" 
	d="
M31.262733,90.070969 
	C30.473768,88.440369 29.973072,86.923271 29.216148,85.164902 
	C29.482697,84.319801 30.005468,83.715981 30.853159,83.066513 
	C31.908100,83.659355 32.638123,84.297852 33.672157,84.992661 
	C34.181980,87.239746 36.780758,90.560555 31.262733,90.070969 
z"/>
<path fill="#374D8B" opacity="1.000000" stroke="none" 
	d="
M41.268227,81.165710 
	C41.540318,80.939339 41.905621,80.942635 42.544418,80.952415 
	C42.332420,81.104393 41.846931,81.249886 41.268227,81.165710 
z"/>
<path fill="#504E5B" opacity="1.000000" stroke="none" 
	d="
M26.928858,43.317291 
	C27.037485,42.938759 27.211287,42.878784 27.679817,43.162251 
	C28.002522,44.024452 28.030497,44.543217 28.058470,45.061977 
	C27.571062,45.350586 27.083652,45.639191 26.303818,45.955231 
	C26.338936,45.200390 26.666483,44.418118 26.928858,43.317291 
z"/>
<path fill="#FE48A0" opacity="1.000000" stroke="none" 
	d="
M48.412411,73.868149 
	C47.949348,73.815552 47.979263,73.508705 48.477055,73.296333 
	C52.661228,73.028137 56.347610,72.972313 60.082718,73.183678 
	C60.131157,73.631935 60.130867,73.812996 60.130581,73.994064 
	C56.378880,73.969627 52.627174,73.945190 48.412411,73.868149 
z"/>
<path fill="#C3194C" opacity="1.000000" stroke="none" 
	d="
M60.307503,73.999527 
	C60.130867,73.812996 60.131157,73.631935 60.074810,72.956329 
	C60.018177,72.461800 59.992710,72.006668 60.005379,71.668900 
	C60.027466,70.880775 60.036884,70.430420 60.046303,69.980057 
	C60.046303,69.980057 60.434868,69.978119 60.628681,69.970306 
	C60.878529,71.053185 60.934566,72.143867 60.913696,73.636848 
	C60.836792,74.039139 60.484428,74.004990 60.307503,73.999527 
z"/>
<path fill="#39332F" opacity="1.000000" stroke="none" 
	d="
M25.000591,24.490643 
	C26.257965,24.529507 27.519745,24.892918 28.884045,25.801403 
	C28.986567,26.346476 28.918819,26.815523 28.673214,26.805208 
	C28.427608,26.794893 27.969292,26.616772 27.778252,26.449421 
	C27.100611,26.170151 26.614012,26.058229 25.856386,25.979164 
	C25.406490,26.045671 25.227619,26.079321 25.048750,26.112968 
	C25.034166,25.680376 25.019583,25.247786 25.000591,24.490643 
z"/>
<path fill="#D08C76" opacity="1.000000" stroke="none" 
	d="
M25.162642,28.915211 
	C24.991289,28.940666 24.819937,28.966122 24.390850,29.024002 
	C24.221327,28.454758 24.309536,27.853085 24.693253,27.122555 
	C24.988758,26.993698 24.963554,26.975470 25.186203,27.251383 
	C25.326780,27.989935 25.244711,28.452572 25.162642,28.915211 
z"/>
<path fill="#D08C76" opacity="1.000000" stroke="none" 
	d="
M25.028915,26.325859 
	C25.227619,26.079321 25.406490,26.045671 25.849617,26.321020 
	C25.730436,26.745169 25.346996,26.860319 24.963554,26.975471 
	C24.963554,26.975470 24.988758,26.993698 24.977596,26.978973 
	C24.966436,26.964247 25.009079,26.538752 25.028915,26.325859 
z"/>
<path fill="#CA8A6F" opacity="1.000000" stroke="none" 
	d="
M27.057228,60.644650 
	C26.937288,60.884636 26.761778,60.922512 26.320560,61.001583 
	C26.182854,60.667004 26.310854,60.291233 26.438852,59.915462 
	C26.626455,60.091152 26.814058,60.266846 27.057228,60.644650 
z"/>
<path fill="#3C4053" opacity="1.000000" stroke="none" 
	d="
M28.397644,45.049591 
	C28.030497,44.543217 28.002522,44.024452 27.950764,43.110813 
	C27.926979,42.715935 27.969925,42.300930 28.116486,42.105721 
	C28.263046,41.910515 28.463734,42.004314 28.718111,42.206039 
	C29.667507,42.920254 30.362526,43.432743 31.027460,44.178886 
	C30.997375,44.412537 30.950985,44.881409 30.950985,44.881409 
	C30.950985,44.881409 30.532228,45.005409 30.314154,45.016510 
	C29.642992,45.030807 29.189903,45.034008 28.397644,45.049591 
z"/>
<path fill="#F21E5C" opacity="1.000000" stroke="none" 
	d="
M47.274937,67.222992 
	C47.308186,67.017624 47.679920,67.022156 48.294178,67.011185 
	C50.933628,66.995361 52.958824,66.990517 55.348164,66.991669 
	C56.811356,67.333763 57.910400,67.669846 59.005119,68.004150 
	C59.000793,68.002388 59.009579,68.016266 58.607464,68.014465 
	C57.134747,68.011353 56.064148,68.010033 54.558228,67.999832 
	C52.097076,67.993401 50.071251,67.995857 47.838615,67.960373 
	C47.631805,67.922440 47.218712,67.843811 47.218712,67.843811 
	C47.218712,67.843811 47.241688,67.428360 47.274937,67.222992 
z"/>
<path fill="#F02065" opacity="1.000000" stroke="none" 
	d="
M59.992710,72.006668 
	C59.992710,72.006668 60.018177,72.461800 60.026085,72.689148 
	C56.347610,72.972313 52.661228,73.028137 48.521622,73.148758 
	C48.002140,73.005791 47.935886,72.798027 47.917442,72.283936 
	C47.965252,71.977600 48.214508,71.953644 48.631912,71.968956 
	C51.032303,71.985062 53.015285,71.985863 55.398853,71.991486 
	C56.866718,71.995140 57.934002,71.993980 59.248997,72.006363 
	C59.496712,72.019905 59.992710,72.006668 59.992710,72.006668 
z"/>
<path fill="#BA2765" opacity="1.000000" stroke="none" 
	d="
M47.141296,68.200699 
	C47.218712,67.843811 47.631805,67.922440 47.824436,68.357353 
	C48.082882,69.846062 48.148693,70.899849 48.214508,71.953644 
	C48.214508,71.953644 47.965252,71.977600 47.839355,71.966278 
	C47.496933,70.822502 47.280407,69.690041 47.141296,68.200699 
z"/>
<path fill="#EC3A88" opacity="1.000000" stroke="none" 
	d="
M53.402763,18.994064 
	C52.999706,18.777777 52.987972,18.567104 52.955860,18.039696 
	C53.423740,17.487638 53.912006,17.252317 54.666714,16.933197 
	C55.733200,16.621252 56.533237,16.393108 57.644791,16.186481 
	C56.568901,17.138559 55.181496,18.069118 53.402763,18.994064 
z"/>
<path fill="#F4407E" opacity="1.000000" stroke="none" 
	d="
M58.977127,21.000502 
	C58.988731,19.660185 59.000336,18.319868 59.016815,16.580906 
	C59.021690,16.182261 59.493607,16.103832 59.730221,16.139759 
	C59.983475,17.194870 60.000111,18.214054 59.899429,19.827820 
	C59.518497,20.622511 59.254887,20.822624 58.995186,21.014452 
	C58.999096,21.006166 58.977131,21.000502 58.977127,21.000502 
z"/>
<path fill="#F9275E" opacity="1.000000" stroke="none" 
	d="
M47.372013,61.310459 
	C47.115356,60.292526 47.076233,59.568016 47.077538,58.481842 
	C48.310055,58.819366 49.426544,59.805649 50.713509,60.144539 
	C52.296783,60.561466 54.022240,60.438457 56.097672,60.449371 
	C56.908615,60.532146 57.308136,60.714367 57.707649,60.896584 
	C57.802532,60.268501 57.897411,59.640423 58.239136,59.004993 
	C58.485973,58.997646 58.979328,58.974503 58.979328,58.974503 
	C58.992123,60.055779 59.004917,61.137058 58.995579,62.995426 
	C57.642902,64.523232 56.312363,65.273941 54.546703,66.015465 
	C52.083984,66.008682 50.056381,66.011101 48.028778,66.013512 
	C47.882366,64.543633 47.735958,63.073757 47.372013,61.310459 
z"/>
<path fill="#FF4185" opacity="1.000000" stroke="none" 
	d="
M48.016800,66.260147 
	C50.056381,66.011101 52.083984,66.008682 54.549911,66.255600 
	C54.988239,66.504921 54.984016,66.985672 54.984016,66.985672 
	C52.958824,66.990517 50.933628,66.995361 48.479683,66.999344 
	C48.050926,66.998489 48.004822,66.506783 48.016800,66.260147 
z"/>
<path fill="#73D0DB" opacity="1.000000" stroke="none" 
	d="
M29.161348,61.435532 
	C29.685049,61.922642 30.131315,62.832600 30.475693,64.039108 
	C30.106089,64.377037 29.836943,64.390968 29.362831,64.418274 
	C29.134167,63.592194 29.109041,62.725288 29.161348,61.435532 
z"/>
<path fill="#3F3A44" opacity="1.000000" stroke="none" 
	d="
M25.902607,37.931618 
	C26.991676,36.838310 28.134911,35.837250 29.636040,34.928093 
	C32.758709,35.019997 35.523487,35.019997 39.122131,35.019997 
	C38.814537,37.365871 38.559677,39.309578 38.135330,41.613335 
	C37.965851,41.973377 38.008289,41.893940 37.723114,41.815414 
	C37.252693,41.184990 37.067448,40.633091 36.877426,39.750900 
	C36.249630,38.876736 35.626606,38.332859 34.759613,37.530991 
	C32.924210,37.582935 31.332781,37.892876 29.554344,38.174980 
	C29.367338,38.147144 29.014935,38.010040 28.648113,38.020233 
	C27.552048,38.083080 26.822807,38.135731 26.093565,38.188377 
	C26.093565,38.188381 25.956774,38.023869 25.902607,37.931618 
z"/>
<path fill="#E28D7A" opacity="1.000000" stroke="none" 
	d="
M39.983105,27.004080 
	C40.183182,26.993113 40.383263,26.982145 40.882607,26.941650 
	C41.889126,27.027418 42.596382,27.142714 43.641663,27.518074 
	C43.981678,28.226410 43.983677,28.674685 43.985672,29.122957 
	C43.986565,29.497503 43.987457,29.872047 43.992157,30.526409 
	C43.995968,30.806225 43.773468,30.920944 43.196133,30.953833 
	C41.146816,31.072607 39.674835,31.158495 37.803261,31.179874 
	C36.598919,31.076162 35.794170,31.036961 34.989418,30.997759 
	C34.989418,30.997759 34.550243,31.016302 34.354340,30.673010 
	C34.131042,29.858620 34.103653,29.387524 34.249161,28.781258 
	C35.277454,28.605665 36.132854,28.565241 37.283993,28.487169 
	C38.152946,28.863270 38.726162,29.277016 39.299385,29.690765 
	C39.524055,29.139299 39.748726,28.587833 39.980038,27.778336 
	C39.985489,27.348228 39.984299,27.176155 39.983105,27.004080 
z"/>
<path fill="#B17365" opacity="1.000000" stroke="none" 
	d="
M36.988258,28.524817 
	C36.132854,28.565241 35.277454,28.605665 33.960941,28.935234 
	C33.224293,29.557930 32.948750,29.891481 32.673210,30.225037 
	C32.355412,30.207270 32.037510,30.191612 31.475687,29.783434 
	C31.213976,28.891249 31.196077,28.393698 31.178179,27.896145 
	C32.272202,27.085203 33.366222,26.274261 34.819153,25.931419 
	C35.542042,26.614742 35.906021,26.829967 36.270004,27.045193 
	C36.453636,27.067257 36.637268,27.089319 37.032925,27.515438 
	C37.159386,28.121269 37.073822,28.323042 36.988258,28.524817 
z"/>
<path fill="#AF7464" opacity="1.000000" stroke="none" 
	d="
M35.534714,48.004967 
	C35.206593,47.707844 35.174294,47.232334 35.123489,46.400768 
	C35.104984,46.044716 35.122463,46.026306 35.418118,45.834724 
	C35.882282,44.990288 36.050797,44.337437 36.439003,43.549278 
	C37.108559,42.907299 37.558426,42.400620 38.008289,41.893940 
	C38.008289,41.893940 37.965851,41.973377 37.924057,41.955494 
	C38.066227,41.939293 38.250195,41.940971 38.865479,42.204391 
	C39.581150,42.723831 39.865513,42.981529 40.149872,43.239223 
	C40.038574,44.156586 39.927277,45.073944 39.729130,46.316990 
	C38.371700,47.037312 37.101120,47.431946 35.534714,48.004967 
z"/>
<path fill="#6B5048" opacity="1.000000" stroke="none" 
	d="
M31.078545,27.593397 
	C31.196077,28.393698 31.213976,28.891249 31.237831,29.762806 
	C31.243792,30.136810 31.006628,30.486660 30.672253,30.824574 
	C30.156160,31.265068 29.974440,31.367649 29.792721,31.470230 
	C29.792721,31.470230 29.590292,31.335272 29.569557,30.898169 
	C29.592014,29.968542 29.635204,29.476017 29.732096,28.677422 
	C29.496803,27.852741 29.207811,27.334131 28.918819,26.815523 
	C28.918819,26.815523 28.986567,26.346476 29.037598,26.115063 
	C29.718723,26.352650 30.348816,26.821650 31.078545,27.593397 
z"/>
<path fill="#845D53" opacity="1.000000" stroke="none" 
	d="
M38.202854,31.244381 
	C39.674835,31.158495 41.146816,31.072607 43.074287,30.982483 
	C42.013599,31.273451 40.497421,31.568657 38.580986,31.681316 
	C38.180737,31.498768 38.202854,31.244381 38.202854,31.244381 
z"/>
<path fill="#B27B6C" opacity="1.000000" stroke="none" 
	d="
M37.803261,31.179874 
	C38.202854,31.244381 38.180737,31.498768 38.187408,31.624954 
	C37.284878,31.668434 36.375675,31.585724 35.227943,31.250387 
	C35.794170,31.036961 36.598919,31.076162 37.803261,31.179874 
z"/>
<path fill="#96685A" opacity="1.000000" stroke="none" 
	d="
M32.865841,30.436605 
	C32.948750,29.891481 33.224293,29.557930 33.788048,29.070400 
	C34.103653,29.387524 34.131042,29.858620 34.134766,30.682718 
	C33.760227,30.906538 33.409351,30.777357 32.865841,30.436605 
z"/>
<path fill="#96685A" opacity="1.000000" stroke="none" 
	d="
M40.168549,42.793427 
	C39.865513,42.981529 39.581150,42.723831 39.140594,42.225983 
	C39.161781,41.910191 39.339172,41.834549 39.767891,41.615059 
	C40.075222,41.763359 40.131222,42.055496 40.168549,42.793427 
z"/>
<path fill="#B07966" opacity="1.000000" stroke="none" 
	d="
M29.826397,31.728771 
	C29.974440,31.367649 30.156160,31.265068 30.621025,31.029600 
	C30.759197,31.286440 30.614222,31.676168 30.233604,32.278053 
	C29.952000,32.322578 29.906036,32.154945 29.826397,31.728771 
z"/>
<path fill="#E21C6F" opacity="1.000000" stroke="none" 
	d="
M58.202488,25.997141 
	C57.770000,25.441399 57.598591,24.889975 57.212990,23.901060 
	C56.998802,23.463570 57.004921,22.981581 57.202599,22.862244 
	C57.648281,22.548815 57.833519,22.306696 58.216621,22.012033 
	C58.651024,22.005220 58.824791,22.002924 58.999527,22.400925 
	C58.995590,23.868069 58.990692,24.934917 58.985790,26.001768 
	C58.811714,26.001665 58.637642,26.001562 58.202488,25.997141 
z"/>
<path fill="#F63B76" opacity="1.000000" stroke="none" 
	d="
M59.239506,26.009338 
	C58.990692,24.934917 58.995590,23.868069 59.000244,22.400623 
	C59.000000,22.000029 59.000504,21.998749 59.224571,22.187302 
	C59.636822,22.923340 59.825012,23.470823 60.013199,24.018307 
	C60.011200,24.460182 60.009197,24.902061 60.003990,25.675604 
	C59.831600,26.010481 59.662411,26.013695 59.239506,26.009338 
z"/>
<path fill="#F33A59" opacity="1.000000" stroke="none" 
	d="
M62.890911,29.655903 
	C62.503242,29.695190 62.231049,29.610872 61.958858,29.526554 
	C62.045654,29.420500 62.158634,29.211557 62.214798,29.225851 
	C62.487026,29.295137 62.744007,29.424332 62.890911,29.655903 
z"/>
<path fill="#F63B76" opacity="1.000000" stroke="none" 
	d="
M59.857742,27.087612 
	C59.992710,26.987988 59.995186,27.486298 59.987045,27.735119 
	C59.616451,27.782757 59.531075,27.517189 59.857742,27.087612 
z"/>
<path fill="#C77D6E" opacity="1.000000" stroke="none" 
	d="
M44.213306,29.109516 
	C43.983677,28.674685 43.981678,28.226410 43.997871,27.443981 
	C44.016064,27.109825 44.031128,26.643219 44.062889,26.412132 
	C44.421329,26.925062 44.748013,27.669077 44.984749,28.732258 
	C44.894810,29.051422 44.440941,29.096075 44.213306,29.109516 
z"/>
<path fill="#CF7B6A" opacity="1.000000" stroke="none" 
	d="
M48.007660,29.010426 
	C48.015190,29.020069 47.782021,29.366560 47.782021,29.366560 
	C47.782021,29.366560 47.785191,29.086618 47.883114,29.036263 
	C47.981037,28.985905 48.000130,29.000784 48.007660,29.010426 
z"/>
<path fill="#DF1D80" opacity="1.000000" stroke="none" 
	d="
M58.999283,22.000328 
	C58.824791,22.002924 58.651024,22.005220 58.024597,22.136795 
	C57.330135,22.462734 57.141132,22.701235 57.004921,22.981581 
	C57.004921,22.981581 56.998802,23.463570 56.994415,23.703966 
	C56.700577,23.848476 56.445107,23.695745 55.881805,23.044598 
	C54.694332,22.399874 53.848679,22.196726 53.003025,21.993576 
	C53.003025,21.993576 53.003147,21.515450 53.423759,21.265318 
	C55.219521,21.006008 56.594669,20.996828 57.969818,20.987648 
	C58.137791,20.989822 58.305759,20.991997 58.725433,20.997337 
	C58.977131,21.000502 58.999096,21.006166 58.997978,21.258320 
	C58.996864,21.510473 59.000504,21.998749 59.000504,21.998749 
	C59.000504,21.998749 59.000000,22.000029 58.999283,22.000328 
z"/>
<path fill="#EC3A88" opacity="1.000000" stroke="none" 
	d="
M53.002060,22.244938 
	C53.848679,22.196726 54.694332,22.399874 55.747086,22.864477 
	C55.550858,23.119528 55.147530,23.113123 54.443924,23.113262 
	C53.954010,23.090199 53.764378,23.060589 53.287285,23.014999 
	C53.000256,22.831448 53.000675,22.663872 53.002060,22.244938 
z"/>
<path fill="#CF7B6A" opacity="1.000000" stroke="none" 
	d="
M50.068398,24.381699 
	C50.002388,24.327698 50.324806,24.377811 50.483677,24.413120 
	C50.642548,24.448427 50.508545,24.589941 50.422966,24.638809 
	C50.337391,24.687679 50.134403,24.435701 50.068398,24.381699 
z"/>
<path fill="#FD456F" opacity="1.000000" stroke="none" 
	d="
M55.348164,66.991676 
	C54.984016,66.985672 54.988239,66.504921 54.985031,66.264786 
	C56.312363,65.273941 57.642902,64.523232 59.003426,63.400848 
	C59.033409,63.029182 59.494045,63.019012 59.724030,63.026459 
	C59.954151,64.417038 59.954285,65.800171 59.706657,67.594162 
	C59.458893,68.005005 59.009449,68.005920 59.009449,68.005920 
	C57.910400,67.669846 56.811356,67.333763 55.348164,66.991676 
z"/>
<path fill="#FD5283" opacity="1.000000" stroke="none" 
	d="
M59.005119,68.004150 
	C59.009449,68.005920 59.458893,68.005005 59.680996,68.009323 
	C59.933830,68.450653 59.964561,68.887657 60.020798,69.652359 
	C60.036884,70.430420 60.027466,70.880775 60.005379,71.668900 
	C59.992710,72.006668 59.496712,72.019905 59.235374,71.741394 
	C58.962357,71.286270 58.950684,71.109673 58.965031,70.611069 
	C58.994049,69.857994 58.997047,69.426941 59.000637,68.750961 
	C59.001232,68.506035 59.009579,68.016266 59.009579,68.016266 
	C59.009579,68.016266 59.000793,68.002388 59.005119,68.004150 
z"/>
<path fill="#F51C4F" opacity="1.000000" stroke="none" 
	d="
M58.986507,58.545792 
	C58.979328,58.974503 58.485973,58.997646 57.931892,58.997917 
	C56.968735,58.985298 56.559662,58.972416 56.150589,58.959534 
	C56.448975,57.649677 56.747360,56.339821 57.067131,54.705345 
	C57.502975,54.239117 57.917427,54.097507 58.647709,53.866577 
	C58.973587,55.223866 58.983635,56.670471 58.986507,58.545792 
z"/>
<path fill="#F52B4B" opacity="1.000000" stroke="none" 
	d="
M52.931973,54.087055 
	C52.638996,53.616791 52.346020,53.146526 52.011246,52.394024 
	C51.976078,51.641567 51.982704,51.171352 52.369644,50.349373 
	C53.499416,49.998013 54.248878,49.998417 54.998337,49.998825 
	C55.011288,50.178429 55.024242,50.358032 55.068886,50.805916 
	C55.048283,51.514339 54.995995,51.954487 54.605183,52.761032 
	C53.821766,53.447308 53.376869,53.767181 52.931973,54.087055 
z"/>
<path fill="#E10D44" opacity="1.000000" stroke="none" 
	d="
M54.999836,49.749428 
	C54.248878,49.998417 53.499416,49.998013 52.374893,49.996979 
	C51.999825,49.996353 52.000324,49.499275 52.000183,49.251831 
	C52.749855,49.003292 53.499664,49.002190 54.623695,49.001160 
	C54.997913,49.001236 55.001335,49.500031 54.999836,49.749428 
z"/>
<path fill="#E21C6F" opacity="1.000000" stroke="none" 
	d="
M59.224571,22.187302 
	C59.000504,21.998749 58.996864,21.510473 58.994072,21.266605 
	C59.254887,20.822624 59.518497,20.622511 59.916687,20.211088 
	C60.051262,19.999777 60.510014,19.997786 60.738998,19.995880 
	C61.449905,20.302299 61.931824,20.610624 62.706211,20.954288 
	C62.160007,21.869465 61.321331,22.749306 60.247925,23.823727 
	C59.825012,23.470823 59.636822,22.923340 59.224571,22.187302 
z"/>
<path fill="#EA2D75" opacity="1.000000" stroke="none" 
	d="
M62.165367,18.434017 
	C62.118240,18.576523 62.018684,18.622936 61.919128,18.669350 
	C61.983734,18.558874 62.048336,18.448400 62.165367,18.434017 
z"/>
<path fill="#413733" opacity="1.000000" stroke="none" 
	d="
M36.266304,26.754513 
	C35.906021,26.829967 35.542042,26.614742 35.073883,26.092278 
	C35.152004,25.732101 35.334301,25.679169 35.749092,25.790543 
	C36.075256,26.124512 36.168930,26.294172 36.266304,26.754513 
z"/>
<path fill="#F23E89" opacity="1.000000" stroke="none" 
	d="
M57.699059,20.740746 
	C56.594669,20.996828 55.219521,21.006008 53.431915,21.026394 
	C53.017040,20.862303 53.014622,20.687002 53.012619,20.248577 
	C54.484791,20.154915 55.956547,20.324377 57.699059,20.740746 
z"/>
<path fill="#403B38" opacity="1.000000" stroke="none" 
	d="
M37.283993,28.487169 
	C37.073822,28.323042 37.159386,28.121269 37.298222,27.596584 
	C37.629887,27.330627 37.911167,27.358494 38.601124,27.510391 
	C39.329075,27.787796 39.651234,27.912081 39.973396,28.036366 
	C39.748726,28.587833 39.524055,29.139299 39.299385,29.690765 
	C38.726162,29.277016 38.152946,28.863270 37.283993,28.487169 
z"/>
<path fill="#B17365" opacity="1.000000" stroke="none" 
	d="
M39.980034,27.778334 
	C39.651234,27.912081 39.329075,27.787796 38.814194,27.488934 
	C38.846405,27.253544 39.071335,27.192732 39.639687,27.068001 
	C39.984299,27.176155 39.985489,27.348228 39.980034,27.778334 
z"/>
<path fill="#FC3654" opacity="1.000000" stroke="none" 
	d="
M56.123661,59.233009 
	C56.559662,58.972416 56.968735,58.985298 57.685051,59.005264 
	C57.897411,59.640423 57.802532,60.268501 57.707649,60.896584 
	C57.308136,60.714367 56.908615,60.532146 56.321091,60.202408 
	C56.120968,59.872089 56.108852,59.689289 56.123661,59.233009 
z"/>
<path fill="#E51648" opacity="1.000000" stroke="none" 
	d="
M53.090431,54.265823 
	C53.376869,53.767181 53.821766,53.447308 54.543404,53.087601 
	C54.296398,53.513374 53.772644,53.978981 53.090431,54.265823 
z"/>
<path fill="#5D7073" opacity="1.000000" stroke="none" 
	d="
M36.219307,43.684586 
	C36.050797,44.337437 35.882282,44.990288 35.420139,45.821846 
	C33.983543,45.647968 32.840584,45.295391 31.324303,44.912109 
	C30.950985,44.881409 30.997375,44.412537 31.456341,44.153008 
	C33.349972,43.823845 34.784641,43.754215 36.219307,43.684586 
z"/>
<path fill="#4F423D" opacity="1.000000" stroke="none" 
	d="
M25.186203,27.251385 
	C25.346996,26.860319 25.730436,26.745169 26.120644,26.288162 
	C26.614012,26.058229 27.100611,26.170151 27.774662,26.803574 
	C28.398592,27.877995 28.835072,28.430914 29.250542,29.518097 
	C29.246593,30.408407 29.263653,30.764450 29.280712,31.120495 
	C28.179478,30.367655 27.078243,29.614815 25.569824,28.888592 
	C25.244711,28.452572 25.326780,27.989935 25.186203,27.251385 
z"/>
<path fill="#B07966" opacity="1.000000" stroke="none" 
	d="
M29.299278,31.129639 
	C29.263653,30.764450 29.246593,30.408407 29.351971,29.517912 
	C29.474409,28.983461 29.678396,28.983494 29.678394,28.983494 
	C29.635204,29.476017 29.592014,29.968542 29.469864,30.828463 
	C29.390903,31.195860 29.317846,31.138784 29.299278,31.129639 
z"/>
<path fill="#34323E" opacity="1.000000" stroke="none" 
	d="
M26.079224,38.504395 
	C26.822807,38.135731 27.552048,38.083080 28.534777,38.408752 
	C28.680086,39.859486 28.571911,40.931900 28.463734,42.004314 
	C28.463734,42.004314 28.263046,41.910515 28.151810,41.900124 
	C27.382008,40.866631 26.723446,39.843521 26.079224,38.504395 
z"/>
<path fill="#B57A68" opacity="1.000000" stroke="none" 
	d="
M29.732098,28.677422 
	C29.678396,28.983494 29.474409,28.983461 29.372980,28.983646 
	C28.835072,28.430914 28.398592,27.877995 27.965702,26.970924 
	C27.969292,26.616772 28.427608,26.794893 28.673214,26.805208 
	C29.207811,27.334131 29.496803,27.852741 29.732098,28.677422 
z"/>
<path fill="#E49D7E" opacity="1.000000" stroke="none" 
	d="
M28.718113,42.206039 
	C28.571911,40.931900 28.680086,39.859486 28.901600,38.398556 
	C29.014935,38.010040 29.367338,38.147144 29.633450,38.477974 
	C30.615143,39.493458 31.330727,40.178116 32.357227,40.948929 
	C33.087025,40.969006 33.505901,40.902924 34.230869,40.807922 
	C35.318707,40.546398 36.100452,40.313789 36.882202,40.081184 
	C37.067448,40.633091 37.252693,41.184990 37.723114,41.815414 
	C37.558426,42.400620 37.108559,42.907299 36.438999,43.549278 
	C34.784641,43.754215 33.349972,43.823845 31.486423,43.919353 
	C30.362526,43.432743 29.667507,42.920254 28.718113,42.206039 
z"/>
<path fill="#FD378A" opacity="1.000000" stroke="none" 
	d="
M48.631912,71.968956 
	C48.148693,70.899849 48.082882,69.846062 48.031242,68.395294 
	C50.071251,67.995857 52.097076,67.993401 54.561405,68.250427 
	C55.001137,68.677101 55.002365,68.844292 54.998718,69.327484 
	C55.010372,70.063736 55.026897,70.483986 55.030182,71.174767 
	C55.010715,71.625740 55.004494,71.806198 54.998268,71.986664 
	C53.015285,71.985863 51.032303,71.985062 48.631912,71.968956 
M50.821243,69.366661 
	C50.735592,69.504555 50.588001,69.639908 50.582199,69.781082 
	C50.576710,69.914841 50.716022,70.171227 50.798264,70.173943 
	C51.671791,70.202843 52.546631,70.191872 53.421112,70.191872 
	C53.441986,69.924606 53.462864,69.657341 53.483742,69.390068 
	C52.745483,69.316727 52.007229,69.243378 50.821243,69.366661 
z"/>
<path fill="#FD3E7B" opacity="1.000000" stroke="none" 
	d="
M55.003597,69.011482 
	C55.002365,68.844292 55.001137,68.677101 54.996727,68.259308 
	C56.064148,68.010033 57.134747,68.011353 58.607464,68.014465 
	C59.009579,68.016266 59.001232,68.506035 58.600945,68.749916 
	C57.134972,68.999687 56.069283,69.005585 55.003597,69.011482 
z"/>
<path fill="#FB3487" opacity="1.000000" stroke="none" 
	d="
M55.398853,71.991486 
	C55.004494,71.806198 55.010715,71.625740 55.302711,71.099609 
	C56.705326,70.813637 57.822170,70.873360 58.939011,70.933083 
	C58.950684,71.109673 58.962357,71.286270 58.987656,71.727844 
	C57.934002,71.993980 56.866718,71.995140 55.398853,71.991486 
z"/>
<path fill="#A64832" opacity="1.000000" stroke="none" 
	d="
M32.046310,40.862770 
	C31.330727,40.178116 30.615143,39.493458 29.820456,38.505810 
	C31.332781,37.892876 32.924210,37.582935 34.570740,37.688148 
	C34.388618,38.328194 34.183868,38.579529 33.717701,38.952019 
	C32.964645,39.652069 32.505478,40.257420 32.046310,40.862770 
z"/>
<path fill="#A54D3F" opacity="1.000000" stroke="none" 
	d="
M34.011585,38.857311 
	C34.183868,38.579529 34.388618,38.328194 34.814713,37.946144 
	C35.626606,38.332859 36.249630,38.876736 36.877426,39.750896 
	C36.100452,40.313789 35.318707,40.546398 34.239296,40.479008 
	C33.964954,39.738445 33.988270,39.297878 34.011585,38.857311 
z"/>
<path fill="#EC3A88" opacity="1.000000" stroke="none" 
	d="
M57.202599,22.862244 
	C57.141132,22.701235 57.330135,22.462734 57.763962,22.141314 
	C57.833519,22.306696 57.648281,22.548815 57.202599,22.862244 
z"/>
<path fill="#F22663" opacity="1.000000" stroke="none" 
	d="
M58.965031,70.611069 
	C57.822170,70.873360 56.705326,70.813637 55.315956,70.829086 
	C55.026897,70.483986 55.010372,70.063736 54.998718,69.327484 
	C56.069283,69.005585 57.134972,68.999687 58.600349,68.994843 
	C58.997047,69.426941 58.994049,69.857994 58.965031,70.611069 
z"/>
<path fill="#842B1F" opacity="1.000000" stroke="none" 
	d="
M33.717701,38.952019 
	C33.988270,39.297878 33.964954,39.738445 33.933208,40.507927 
	C33.505901,40.902924 33.087025,40.969006 32.357227,40.948929 
	C32.505478,40.257420 32.964645,39.652069 33.717701,38.952019 
z"/>
<path fill="#F32567" opacity="1.000000" stroke="none" 
	d="
M51.045105,69.268349 
	C52.007229,69.243378 52.745483,69.316727 53.483742,69.390068 
	C53.462864,69.657341 53.441986,69.924606 53.421112,70.191872 
	C52.546631,70.191872 51.671791,70.202843 50.798264,70.173943 
	C50.716022,70.171227 50.576710,69.914841 50.582199,69.781082 
	C50.588001,69.639908 50.735592,69.504555 51.045105,69.268349 
z"/>
</svg>